# xmcd
#
# Track frame offsets:
#	150
#	12899
#	27270
#	38093
#	49251
#	57410
#	76084
#	87971
#	97674
#	112211
#	129757
#	143443
#	154548
#	169028
#	183868
#	197461
#	211505
#	223253
#	239344
#	252693
#
# Disc length: 3559 seconds
#
# Revision: 0
# Processed by: cddbd v1.5.2PL0 Copyright (c) Steve Scherf et al.
# Submitted via: EasyCDDAExtractor 16.0.0.1
#
DISCID=fd0de514
DTITLE=Philomena Begley - 40 Great Songs_Village In County Tyrone 1
DYEAR=1900
DGENRE=Country
TTITLE0=To Hear The Family sing
TTITLE1=Grandma Whistled
TTITLE2=Medals For Mothers
TTITLE3=I Don't Believe I'll Fall In Love Today
TTITLE4=Lucky Old Me
TTITLE5=Grandpa Tell Us About The Good Old Days
TTITLE6=Yes  Mam  He Found Me In A Honky Tonk
TTITLE7=I Love You Honey
TTITLE8=Big Four Poster Bed
TTITLE9=Our Wedding Day
TTITLE10=No Man Is A Mountain
TTITLE11=Mama's And Daddy's Little Girl
TTITLE12=Come  Me Little Son
TTITLE13=Daddy's Side Of The Bed
TTITLE14=Jealous Heart
TTITLE15=A Picture Of Me
TTITLE16=Where Do Babies Go
TTITLE17=Come By The Hills
TTITLE18=Old Ardboe
TTITLE19=Mama He's Crazy
EXTD=
EXTT0=
EXTT1=
EXTT2=
EXTT3=
EXTT4=
EXTT5=
EXTT6=
EXTT7=
EXTT8=
EXTT9=
EXTT10=
EXTT11=
EXTT12=
EXTT13=
EXTT14=
EXTT15=
EXTT16=
EXTT17=
EXTT18=
EXTT19=
PLAYORDER=
